<svg xmlns="http://www.w3.org/2000/svg" width="1280" height="900" viewBox="0 0 1280 900" role="img" aria-label="PPT 7｜AI辩论场完整训练闭环">
  <defs>
    <pattern id="grid" width="32" height="32" patternUnits="userSpaceOnUse">
      <path d="M32 0H0V32" fill="none" stroke="rgba(104,86,64,0.075)" stroke-width="1"/>
    </pattern>
    <marker id="arrow" viewBox="0 0 18 18" refX="15" refY="9" markerWidth="10" markerHeight="10" orient="auto">
      <path d="M2 2 L16 9 L2 16 Z" fill="#5a5148"/>
    </marker>
    <filter id="shadow" x="-10%" y="-10%" width="120%" height="120%">
      <feDropShadow dx="0" dy="8" stdDeviation="10" flood-color="#32261c" flood-opacity="0.1"/>
    </filter>
    <style>
      svg { background: #fbf7ef; font-family: "Microsoft YaHei", "Noto Sans SC", "PingFang SC", Arial, sans-serif; }
      .title { fill: #211b12; font-size: 34px; font-weight: 850; letter-spacing: 0; }
      .subtitle { fill: #6f5a47; font-size: 17px; font-weight: 650; letter-spacing: 0; }
      .legendText { fill: #211b12; font-size: 15px; font-weight: 800; }
      .node { filter: url(#shadow); }
      .nodeText { box-sizing: border-box; width: 100%; height: 100%; display: flex; flex-direction: column; align-items: center; justify-content: center; text-align: center; color: #5c4d3d; line-height: 1.25; overflow-wrap: anywhere; word-break: break-word; }
      .nodeText .label { font-size: 17px; font-weight: 850; }
      .nodeText .detail { margin-top: 4px; font-size: 12px; font-weight: 700; color: #7c6752; line-height: 1.2; }
      .programDecision .nodeText { color: #345f9c; }
      .aiDecision .nodeText { color: #7654b3; }
      .data .nodeText { color: #446f48; }
      .error .nodeText { color: #ad4e49; }
      .edgeLabel { fill: #4f463d; paint-order: stroke; stroke: #fbf7ef; stroke-width: 7px; stroke-linejoin: round; font-size: 14px; font-weight: 800; }
      .code { fill: #6f5a47; font-family: Consolas, "Courier New", monospace; font-size: 13px; }
    </style>
  </defs>
  <rect x="0" y="0" width="1280" height="900" fill="url(#grid)"/>
  <rect x="32" y="24" width="1216" height="98" rx="16" fill="#f7efe2" stroke="rgba(124,101,78,0.22)"/>
  <text x="56" y="67" class="title">PPT 7｜AI辩论场完整训练闭环</text>
  <text x="58" y="99" class="subtitle">把“真实赛程、论据库、多模态、导出复盘”串成一场可运行的辩论。</text>
  <g><rect x="56" y="140" width="34" height="28" rx="5" fill="#f5efe2" stroke="#8a7b5a" stroke-width="1.6"/><text x="99" y="160" class="legendText">普通步骤</text></g>
<g><polygon points="226,138 242,154 226,170 210,154" fill="#e7f0ff" stroke="#5477a6" stroke-width="1.6"/><text x="253" y="160" class="legendText">系统检查</text></g>
<g><polygon points="380,138 396,154 380,170 364,154" fill="#f0e7ff" stroke="#7c5fb3" stroke-width="1.6"/><text x="407" y="160" class="legendText">AI判断</text></g>
<g><path d="M518,144 C518,134 552,134 552,144 V164 C552,174 518,174 518,164 Z" fill="#eef5ec" stroke="#557a55" stroke-width="1.6"/><ellipse cx="535" cy="144" rx="17" ry="6" fill="#eef5ec" stroke="#557a55" stroke-width="1.6"/><text x="561" y="160" class="legendText">保存/数据库</text></g>
<g><rect x="672" y="140" width="34" height="28" rx="5" fill="#fde7e5" stroke="#b45b55" stroke-width="1.6"/><text x="715" y="160" class="legendText">错误处理</text></g>
  <g><path d="M260 409 L315 409" fill="none" stroke="#5a5148" stroke-width="2.3" marker-end="url(#arrow)"/>
<path d="M505 409 L560 424" fill="none" stroke="#5a5148" stroke-width="2.3" marker-end="url(#arrow)"/>
<path d="M655 273 L662.5 365" fill="none" stroke="#5a5148" stroke-width="2.3" marker-end="url(#arrow)"/>
<path d="M765 424 L805 409" fill="none" stroke="#5a5148" stroke-width="2.3" marker-end="url(#arrow)"/><text x="785" y="408.5" class="edgeLabel">是</text>
<path d="M662.5 365 L655 273" fill="none" stroke="#5a5148" stroke-width="2.3" marker-end="url(#arrow)"/><text x="658.75" y="311" class="edgeLabel">否，继续补充</text>
<path d="M900 453 L900 545" fill="none" stroke="#5a5148" stroke-width="2.3" marker-end="url(#arrow)"/><text x="900" y="491" class="edgeLabel">真人发言时</text>
<path d="M900 545 L900 453" fill="none" stroke="#5a5148" stroke-width="2.3" marker-end="url(#arrow)"/>
<path d="M995 409 L1050 409" fill="none" stroke="#5a5148" stroke-width="2.3" marker-end="url(#arrow)"/></g>
  <g>
    <g class="node main" id="start">
      <rect x="70" y="365" width="190" height="88" rx="10" fill="#f5efe2" stroke="#8a7b5a" stroke-width="2"/>
      <foreignObject x="86" y="382" width="158" height="60">
        <div xmlns="http://www.w3.org/1999/xhtml" class="nodeText"><div class="label">选择训练模式</div><div class="detail">AI自主/用户加入/多人联机</div></div>
      </foreignObject>
    </g>

    <g class="node main" id="room">
      <rect x="315" y="365" width="190" height="88" rx="10" fill="#f5efe2" stroke="#8a7b5a" stroke-width="2"/>
      <foreignObject x="331" y="382" width="158" height="60">
        <div xmlns="http://www.w3.org/1999/xhtml" class="nodeText"><div class="label">创建正式房间</div><div class="detail">辩题、席位、赛程</div></div>
      </foreignObject>
    </g>

      <g class="node data" id="data">
        <path d="M560,199 C560,178 750,178 750,199 V259 C750,280 560,280 560,259 Z" fill="#eef5ec" stroke="#557a55" stroke-width="2"/>
        <ellipse cx="655" cy="199" rx="95" ry="14" fill="#eef5ec" stroke="#557a55" stroke-width="2"/>
        <foreignObject x="576" y="209" width="158" height="54">
          <div xmlns="http://www.w3.org/1999/xhtml" class="nodeText"><div class="label">资料与论据库</div><div class="detail">RAG + argument bank</div></div>
        </foreignObject>
      </g>

      <g class="node programDecision" id="ready">
        <polygon points="662.5,365 765,424 662.5,483 560,424" fill="#e7f0ff" stroke="#5477a6" stroke-width="2"/>
        <foreignObject x="586" y="387" width="153" height="74">
          <div xmlns="http://www.w3.org/1999/xhtml" class="nodeText"><div class="label">论据和赛程是否就绪</div></div>
        </foreignObject>
      </g>

    <g class="node main" id="debate">
      <rect x="805" y="365" width="190" height="88" rx="10" fill="#f5efe2" stroke="#8a7b5a" stroke-width="2"/>
      <foreignObject x="821" y="382" width="158" height="60">
        <div xmlns="http://www.w3.org/1999/xhtml" class="nodeText"><div class="label">按4v4流程辩论</div><div class="detail">队内讨论/公开发言/裁判</div></div>
      </foreignObject>
    </g>

    <g class="node main" id="multi">
      <rect x="805" y="545" width="190" height="88" rx="10" fill="#f5efe2" stroke="#8a7b5a" stroke-width="2"/>
      <foreignObject x="821" y="562" width="158" height="60">
        <div xmlns="http://www.w3.org/1999/xhtml" class="nodeText"><div class="label">多模态训练</div><div class="detail">TTS/ASR/摄像头</div></div>
      </foreignObject>
    </g>

      <g class="node data" id="report">
        <path d="M1050,379 C1050,358 1240,358 1240,379 V439 C1240,460 1050,460 1050,439 Z" fill="#eef5ec" stroke="#557a55" stroke-width="2"/>
        <ellipse cx="1145" cy="379" rx="95" ry="14" fill="#eef5ec" stroke="#557a55" stroke-width="2"/>
        <foreignObject x="1066" y="389" width="158" height="54">
          <div xmlns="http://www.w3.org/1999/xhtml" class="nodeText"><div class="label">赛后复盘报告</div><div class="detail">Markdown/PDF/回放</div></div>
        </foreignObject>
      </g></g>
  <text x="46" y="858" class="code">api/debates.py · workflow/debate_graph.py · services/rag.py · services/judge_report.py · services/export_pdf.py</text>
  <text x="46" y="882" class="subtitle">来源：PPT有效信息页内容 + docs/ai-debate-project-flow.mmd + 项目实际后端/前端文件。</text>
</svg>